<?xml version="1.0" encoding="UTF-8" standalone="no"?>
<!-- Created with Inkscape (http://www.inkscape.org/) -->

<svg
   width="200"
   height="200"
   viewBox="0 0 200 200"
   version="1.1"
   id="svg5"
   sodipodi:docname="anchorcms.svg"
   inkscape:version="1.2-alpha1 (b6a15bbbed, 2022-02-23)"
   xmlns:inkscape="http://www.inkscape.org/namespaces/inkscape"
   xmlns:sodipodi="http://sodipodi.sourceforge.net/DTD/sodipodi-0.dtd"
   xmlns="http://www.w3.org/2000/svg"
   xmlns:svg="http://www.w3.org/2000/svg">
  <sodipodi:namedview
     id="namedview11"
     pagecolor="#ffffff"
     bordercolor="#000000"
     borderopacity="0.25"
     inkscape:pageshadow="2"
     inkscape:pageopacity="0.0"
     inkscape:pagecheckerboard="0"
     inkscape:deskcolor="#d1d1d1"
     showgrid="false"
     inkscape:zoom="5.6568543"
     inkscape:cx="23.069359"
     inkscape:cy="74.953319"
     inkscape:window-width="3000"
     inkscape:window-height="1876"
     inkscape:window-x="-12"
     inkscape:window-y="-12"
     inkscape:window-maximized="1"
     inkscape:current-layer="g127546" />
  <defs
     id="defs2">
    <marker
       style="overflow:visible"
       id="TriangleStart"
       refX="-1.6756115"
       refY="-0.11060666"
       orient="auto-start-reverse"
       markerWidth="19.353619"
       markerHeight="22.818008"
       viewBox="0 0 5.3244081 6.1553851"
       preserveAspectRatio="none"
       markerUnits="userSpaceOnUse">
      <path
         transform="scale(0.5)"
         style="fill:context-stroke;fill-rule:evenodd;stroke:context-stroke;stroke-width:1pt"
         d="M 5.77,0 -2.88,5 V -5 Z"
         id="path135" />
    </marker>
  </defs>
  <rect
     style="fill:#ebeef1;fill-opacity:1;stroke:none;stroke-width:20.0086;stroke-linecap:butt;stroke-miterlimit:4;stroke-dasharray:none;stroke-opacity:1"
     id="rect126118"
     width="200"
     height="200"
     x="0"
     y="0"
     ry="6" />
  <g
     id="g127546">
    <path
       id="ring"
       style="fill:#415060;fill-opacity:1;stroke-width:5;stroke-linecap:round"
       d="M 100,49 A 16,16 0 0 0 84,65 16,16 0 0 0 100,81 16,16 0 0 0 116,65 16,16 0 0 0 100,49 Z m 0,8.195312 A 7.8039312,7.8039312 0 0 1 107.80469,65 7.8039312,7.8039312 0 0 1 100,72.804688 7.8039312,7.8039312 0 0 1 92.195312,65 7.8039312,7.8039312 0 0 1 100,57.195312 Z" />
    <path
       style="fill:none;fill-opacity:1;stroke:#415060;stroke-width:7.9;stroke-linecap:butt;stroke-miterlimit:4;stroke-dasharray:none;stroke-opacity:1"
       d="m 100,77 v 55"
       id="stalk" />
    <path
       style="fill:none;fill-opacity:1;stroke:#415060;stroke-width:7.9;stroke-linecap:butt;stroke-miterlimit:4;stroke-dasharray:none;stroke-opacity:1;marker-end:"
       d="m 63,106 c 10,21 20,26 37,26 17,0 25,-5 35,-26"
       id="hooks" />
    <path
       style="fill:#415060;fill-opacity:1;stroke:none;stroke-width:7.9;stroke-opacity:1"
       d="M 53.257415,111.01695 55.20392,88.691738 73.861229,101.27119 Z"
       id="path11656" />
    <path
       style="fill:#415060;fill-opacity:1;stroke:none;stroke-width:7.9;stroke-opacity:1"
       d="m 124.91406,101.58984 18.6211,-12.562496 1.97656,22.371096"
       id="path11820" />
  </g>
</svg>
